<?xml version="1.0" encoding="utf-8"?>
<!-- Generator: Adobe Illustrator 23.0.5, SVG Export Plug-In . SVG Version: 6.00 Build 0)  -->
<svg version="1.1" id="Слой_1" xmlns="http://www.w3.org/2000/svg" xmlns:xlink="http://www.w3.org/1999/xlink" x="0px" y="0px"
	 viewBox="0 0 1366 768" style="enable-background:new 0 0 1366 768;" xml:space="preserve">
<style type="text/css">
	.st0{fill:#7B77B4;}
	.st1{fill:none;}
	.st2{fill:#FFFFFF;}
	.st3{clip-path:url(#XMLID_3_);fill:#EBF2FC;}
	.st4{clip-path:url(#XMLID_5_);}
	.st5{fill:none;stroke:#ADBCC9;stroke-width:0.5707;stroke-miterlimit:10;}
	.st6{fill:none;stroke:url(#SVGID_1_);stroke-width:0.5707;stroke-miterlimit:10;}
	.st7{fill:none;stroke:url(#SVGID_2_);stroke-width:0.5707;stroke-miterlimit:10;}
	.st8{fill:none;stroke:url(#SVGID_3_);stroke-width:0.5707;stroke-miterlimit:10;}
	.st9{fill:none;stroke:url(#SVGID_4_);stroke-width:0.5707;stroke-miterlimit:10;}
	.st10{fill:none;stroke:url(#SVGID_5_);stroke-width:0.5707;stroke-miterlimit:10;}
	.st11{fill:#312E49;}
	.st12{clip-path:url(#SVGID_7_);fill:url(#SVGID_8_);}
	.st13{clip-path:url(#SVGID_7_);fill:url(#SVGID_9_);}
	.st14{clip-path:url(#SVGID_7_);}
	.st15{enable-background:new    ;}
	.st16{fill:#8F61A3;}
	.st17{fill:#567CD9;}
	.st18{fill:#AA73C2;}
	.st19{fill:#EFBB45;}
	.st20{fill:#8F61A4;}
	.st21{fill:#334A81;}
	.st22{fill:#FF6772;}
	.st23{clip-path:url(#SVGID_11_);enable-background:new    ;}
	.st24{fill:#803439;}
	.st25{fill:#BE4D56;}
	.st26{fill:#C8941D;}
	.st27{fill:#C69B39;}
	.st28{fill:#88A2F5;}
	.st29{fill:#6F8EF5;}
	.st30{fill:none;stroke:#2E3E82;stroke-width:0.8364;stroke-miterlimit:10;}
	.st31{fill:#2E3E82;}
	.st32{opacity:0.28;fill:#2819D0;}
	.st33{fill:url(#SVGID_12_);}
	.st34{fill:url(#SVGID_13_);}
	.st35{fill:url(#SVGID_14_);}
	.st36{fill:#E6ECFC;}
	.st37{fill:url(#SVGID_15_);}
	.st38{fill:#E3E1EF;}
	.st39{fill:#8080E4;}
	.st40{fill:#EAEAEA;}
	.st41{fill:#72D1ED;}
	.st42{fill:#7193E9;}
	.st43{fill:#99DAED;}
	.st44{fill:#FA5E85;}
	.st45{fill:#FB7E9D;}
	.st46{fill:#BFBFBF;}
	.st47{clip-path:url(#SVGID_17_);}
	.st48{clip-path:url(#SVGID_21_);}
	.st49{opacity:0.31;}
	.st50{fill:none;stroke:#FFFFFF;stroke-width:1.4823;stroke-miterlimit:10;}
	.st51{fill:#609BD9;}
	.st52{fill:#5640D3;}
	.st53{fill:#8880EA;}
	.st54{opacity:0.28;}
	.st55{fill:#2819D0;}
	.st56{fill:url(#SVGID_24_);}
	.st57{fill:url(#SVGID_25_);}
	.st58{fill:#FFC1C6;}
	.st59{fill:url(#SVGID_26_);}
	.st60{fill:url(#SVGID_27_);}
	.st61{fill:url(#SVGID_28_);}
	.st62{opacity:0.55;}
	.st63{clip-path:url(#SVGID_30_);fill:url(#SVGID_31_);}
	.st64{clip-path:url(#SVGID_30_);fill:url(#SVGID_32_);}
	.st65{clip-path:url(#SVGID_30_);}
	.st66{clip-path:url(#SVGID_34_);enable-background:new    ;}
	.st67{fill:url(#SVGID_35_);}
	.st68{fill:url(#SVGID_36_);}
	.st69{fill:url(#SVGID_37_);}
	.st70{fill:url(#SVGID_38_);}
	.st71{clip-path:url(#SVGID_40_);}
	.st72{clip-path:url(#SVGID_44_);}
	.st73{fill:url(#SVGID_47_);}
	.st74{fill:url(#SVGID_48_);}
	.st75{fill:url(#SVGID_49_);}
	.st76{fill:url(#SVGID_50_);}
	.st77{fill:url(#SVGID_51_);}
	.st78{clip-path:url(#SVGID_53_);fill:url(#SVGID_54_);}
	.st79{clip-path:url(#SVGID_53_);}
	.st80{fill:url(#SVGID_55_);}
	.st81{fill:url(#SVGID_56_);}
	.st82{clip-path:url(#SVGID_53_);fill:url(#SVGID_57_);}
	.st83{clip-path:url(#SVGID_53_);fill:url(#SVGID_58_);}
	.st84{clip-path:url(#SVGID_53_);fill:url(#SVGID_59_);}
	.st85{fill:url(#SVGID_60_);}
	.st86{fill:#B26ED8;}
	.st87{fill:url(#SVGID_61_);}
	.st88{fill:url(#SVGID_62_);}
	.st89{fill:#91D8FE;}
	.st90{fill:url(#SVGID_63_);}
	.st91{fill:url(#SVGID_64_);}
	.st92{fill:#543BEC;}
	.st93{fill:url(#SVGID_65_);}
	.st94{fill:url(#SVGID_66_);}
	.st95{fill:url(#SVGID_67_);}
	.st96{fill:url(#SVGID_68_);}
	.st97{fill:url(#SVGID_69_);}
	.st98{fill:url(#SVGID_70_);}
	.st99{fill:url(#SVGID_71_);}
	.st100{fill:url(#SVGID_72_);}
	.st101{fill:#A4F8FF;}
	.st102{fill:#7790E6;}
	.st103{fill:url(#SVGID_73_);}
	.st104{fill:url(#SVGID_74_);}
	.st105{fill:url(#SVGID_75_);}
	.st106{fill:url(#SVGID_76_);}
	.st107{fill:url(#SVGID_77_);}
	.st108{fill:#89D5F4;}
	.st109{fill:url(#SVGID_78_);}
	.st110{fill:url(#SVGID_79_);}
	.st111{fill:url(#SVGID_80_);}
</style>
<g>
	<defs>
		<path id="SVGID_52_" d="M1342.57,790H155.87c-26.57,0-48.11-21.54-48.11-48.11V4.11c0-26.57,21.54-48.11,48.11-48.11h1186.69
			c26.57,0,48.11,21.54,48.11,48.11v737.78C1390.68,768.46,1369.14,790,1342.57,790z"/>
	</defs>
	<clipPath id="SVGID_1_">
		<use xlink:href="#SVGID_52_"  style="overflow:visible;"/>
	</clipPath>
	
		<linearGradient id="SVGID_2_" gradientUnits="userSpaceOnUse" x1="-819.4112" y1="2788.4841" x2="-1573.4283" y2="3548.5583" gradientTransform="matrix(0.866 -0.5 1 0.5774 -892.7205 -1834.3472)">
		<stop  offset="0" style="stop-color:#89D5F4"/>
		<stop  offset="0.9996" style="stop-color:#585AEB"/>
	</linearGradient>
	<path style="clip-path:url(#SVGID_1_);fill:url(#SVGID_2_);" d="M1882.48,698.93l-579.69,334.68c-39.43,22.77-88.02,22.77-127.45,0
		L595.66,698.93c-84.97-49.06-84.97-171.7,0-220.76l579.69-334.68c39.43-22.77,88.02-22.77,127.45,0l579.68,334.68
		C1967.45,527.22,1967.45,649.87,1882.48,698.93z"/>
	<g style="clip-path:url(#SVGID_1_);">
		
			<radialGradient id="SVGID_3_" cx="503.7756" cy="679.57" r="84.2361" gradientTransform="matrix(1 0 0 0.2342 0 520.4263)" gradientUnits="userSpaceOnUse">
			<stop  offset="0" style="stop-color:#B5B8FC"/>
			<stop  offset="1" style="stop-color:#FFFFFF;stop-opacity:0"/>
		</radialGradient>
		<ellipse style="fill:url(#SVGID_3_);" cx="503.78" cy="679.57" rx="88" ry="23.08"/>
		
			<radialGradient id="SVGID_4_" cx="1329.2672" cy="369.7508" r="84.2361" gradientTransform="matrix(1 0 0 0.2342 0 283.1614)" gradientUnits="userSpaceOnUse">
			<stop  offset="0" style="stop-color:#B5B8FC"/>
			<stop  offset="1" style="stop-color:#FFFFFF;stop-opacity:0"/>
		</radialGradient>
		<ellipse style="fill:url(#SVGID_4_);" cx="1329.27" cy="369.75" rx="88" ry="23.08"/>
	</g>
	
		<radialGradient id="SVGID_5_" cx="1388.7115" cy="517.8061" r="164.1819" gradientTransform="matrix(0.9979 -0.0641 0.0641 0.9979 -28.5527 -268.2182)" gradientUnits="userSpaceOnUse">
		<stop  offset="0" style="stop-color:#E8E8FE"/>
		<stop  offset="0.1792" style="stop-color:#DADBFD"/>
		<stop  offset="0.5776" style="stop-color:#BFC1FC"/>
		<stop  offset="0.8141" style="stop-color:#B5B8FC"/>
		<stop  offset="0.852" style="stop-color:#BCBEFC"/>
		<stop  offset="0.9072" style="stop-color:#D0D1FD"/>
		<stop  offset="0.9728" style="stop-color:#F0F0FE"/>
		<stop  offset="1" style="stop-color:#FFFFFF"/>
	</radialGradient>
	<circle style="clip-path:url(#SVGID_1_);fill:url(#SVGID_5_);" cx="1333.22" cy="211.61" r="89.11"/>
	
		<radialGradient id="SVGID_7_" cx="541.3799" cy="790.1092" r="164.1819" gradientTransform="matrix(0.9979 -0.0641 0.0641 0.9979 -28.5527 -268.2182)" gradientUnits="userSpaceOnUse">
		<stop  offset="0" style="stop-color:#E8E8FE"/>
		<stop  offset="0.1792" style="stop-color:#DADBFD"/>
		<stop  offset="0.5776" style="stop-color:#BFC1FC"/>
		<stop  offset="0.8141" style="stop-color:#B5B8FC"/>
		<stop  offset="0.852" style="stop-color:#BCBEFC"/>
		<stop  offset="0.9072" style="stop-color:#D0D1FD"/>
		<stop  offset="0.9728" style="stop-color:#F0F0FE"/>
		<stop  offset="1" style="stop-color:#FFFFFF"/>
	</radialGradient>
	<circle style="clip-path:url(#SVGID_1_);fill:url(#SVGID_7_);" cx="505.12" cy="537.65" r="89.11"/>
	
		<radialGradient id="SVGID_8_" cx="1402.7864" cy="1062.1731" r="277.8007" gradientTransform="matrix(0.9979 -0.0641 0.0641 0.9979 -28.5527 -268.2182)" gradientUnits="userSpaceOnUse">
		<stop  offset="0" style="stop-color:#E8E8FE"/>
		<stop  offset="0.1792" style="stop-color:#DADBFD"/>
		<stop  offset="0.5776" style="stop-color:#BFC1FC"/>
		<stop  offset="0.8141" style="stop-color:#B5B8FC"/>
		<stop  offset="0.852" style="stop-color:#BCBEFC"/>
		<stop  offset="0.9072" style="stop-color:#D0D1FD"/>
		<stop  offset="0.9728" style="stop-color:#F0F0FE"/>
		<stop  offset="1" style="stop-color:#FFFFFF"/>
	</radialGradient>
	<circle style="clip-path:url(#SVGID_1_);fill:url(#SVGID_8_);" cx="1342.57" cy="790" r="150.78"/>
</g>
<g>
	<g>
		<linearGradient id="SVGID_9_" gradientUnits="userSpaceOnUse" x1="1102.3352" y1="265.0034" x2="840.7435" y2="601.3354">
			<stop  offset="0" style="stop-color:#E8E8FE"/>
			<stop  offset="1" style="stop-color:#B5B8FC"/>
		</linearGradient>
		<path style="fill:url(#SVGID_9_);" d="M830.24,594.02L720.05,530.4c-20.91-12.07-20.91-42.25,0-54.32l368.37-212.68
			c9.7-5.6,21.66-5.6,31.36,0l110.19,63.62c20.91,12.07,20.91,42.25,0,54.32L861.6,594.02C851.9,599.62,839.94,599.62,830.24,594.02
			z"/>
		<g>
			<g>
				<path class="st86" d="M1172.28,107.13l-75.08,43.35c-5.47,3.16-15.12,2.76-21.44-0.89l-72-41.57
					c-6.32-3.65-7.01-9.22-1.54-12.38l75.08-43.35c5.47-3.16,15.12-2.76,21.44,0.89l72,41.57
					C1177.06,98.4,1177.75,103.97,1172.28,107.13z"/>
				<g>
					<linearGradient id="SVGID_11_" gradientUnits="userSpaceOnUse" x1="1129.3442" y1="134.2299" x2="1134.0156" y2="412.171">
						<stop  offset="0" style="stop-color:#A867DA"/>
						<stop  offset="0.9996" style="stop-color:#5238E0"/>
					</linearGradient>
					<path style="fill:url(#SVGID_11_);" d="M1175.87,376.94V102.75c0,0,0,0,0,0c0,0,0,0,0,0c-0.34,1.65-1.52,3.19-3.59,4.38
						l-75.08,43.35c-2.63,1.52-6.23,2.19-9.96,2.1v276.13c3.73,0.09,7.33-0.58,9.96-2.1l75.08-43.35
						C1175.14,381.61,1176.3,379.29,1175.87,376.94z"/>
					<linearGradient id="SVGID_12_" gradientUnits="userSpaceOnUse" x1="956.0945" y1="74.9299" x2="1051.8557" y2="285.1373">
						<stop  offset="0" style="stop-color:#A867DA"/>
						<stop  offset="0.9996" style="stop-color:#5238E0"/>
					</linearGradient>
					<path class="st33" d="M1075.75,149.58l-72-41.57c-3.02-1.74-4.73-3.92-5.13-6.06v274.19c-0.56,2.72,1.2,5.73,5.13,8l72,41.57
						c3.28,1.9,7.46,2.89,11.49,2.99V152.58C1083.21,152.48,1079.04,151.48,1075.75,149.58z"/>
				</g>
			</g>
			<g>
				<path class="st89" d="M1053.88,270.52l-75.08,43.35c-5.47,3.16-15.12,2.76-21.44-0.89l-72-41.57
					c-6.32-3.65-7.01-9.22-1.54-12.38l75.08-43.35c5.47-3.16,15.12-2.76,21.44,0.89l72,41.57
					C1058.66,261.79,1059.35,267.36,1053.88,270.52z"/>
				<g>
					<linearGradient id="SVGID_13_" gradientUnits="userSpaceOnUse" x1="1011.991" y1="293.2168" x2="1014.3264" y2="470.7255">
						<stop  offset="0" style="stop-color:#A4F8FF"/>
						<stop  offset="1" style="stop-color:#5B61D2"/>
					</linearGradient>
					<path class="st34" d="M1057.47,445.11V266.14c0,0,0,0,0,0s0,0,0,0c-0.34,1.65-1.52,3.19-3.59,4.38l-75.08,43.35
						c-2.63,1.52-6.23,2.19-9.96,2.1v180.9c3.73,0.09,7.33-0.58,9.96-2.1l75.08-43.35C1056.74,449.77,1057.9,447.46,1057.47,445.11z
						"/>
					<linearGradient id="SVGID_14_" gradientUnits="userSpaceOnUse" x1="877.7509" y1="216.6358" x2="945.4843" y2="454.8704">
						<stop  offset="0" style="stop-color:#A4F8FF"/>
						<stop  offset="1" style="stop-color:#5B61D2"/>
					</linearGradient>
					<path class="st35" d="M957.35,312.98l-72-41.57c-3.02-1.74-4.73-3.92-5.13-6.06v178.96c-0.56,2.72,1.2,5.73,5.13,8l72,41.57
						c3.28,1.9,7.46,2.89,11.49,2.99v-180.9C964.81,315.87,960.64,314.87,957.35,312.98z"/>
				</g>
			</g>
			<g>
				<path class="st92" d="M938.09,406.13l-75.08,43.35c-5.47,3.16-15.12,2.76-21.44-0.89l-72-41.57c-6.32-3.65-7.01-9.22-1.54-12.38
					l75.08-43.35c5.47-3.16,15.12-2.76,21.44,0.89l72,41.57C942.87,397.4,943.56,402.97,938.09,406.13z"/>
				<g>
					<linearGradient id="SVGID_15_" gradientUnits="userSpaceOnUse" x1="896.2168" y1="428.8065" x2="898.5524" y2="538.5814">
						<stop  offset="0" style="stop-color:#5A3BDD"/>
						<stop  offset="1" style="stop-color:#2E2680"/>
					</linearGradient>
					<path class="st37" d="M941.68,511.97V401.75c0,0,0,0,0,0v0c-0.34,1.65-1.52,3.19-3.59,4.38l-75.08,43.35
						c-2.63,1.52-6.23,2.19-9.96,2.1v112.15c3.73,0.09,7.33-0.58,9.96-2.1l75.08-43.35C940.95,516.63,942.11,514.32,941.68,511.97z"
						/>
					<linearGradient id="SVGID_17_" gradientUnits="userSpaceOnUse" x1="752.706" y1="368.8837" x2="832.1176" y2="530.0428">
						<stop  offset="0" style="stop-color:#5A3BDD"/>
						<stop  offset="1" style="stop-color:#2E2680"/>
					</linearGradient>
					<path style="fill:url(#SVGID_17_);" d="M841.56,448.59l-72-41.57c-3.02-1.74-4.73-3.92-5.13-6.06v110.21
						c-0.56,2.72,1.2,5.73,5.13,8l72,41.57c3.28,1.9,7.46,2.89,11.49,2.99V451.58C849.02,451.48,844.85,450.48,841.56,448.59z"/>
				</g>
			</g>
		</g>
	</g>
	<g>
		<path class="st86" d="M864.89,628.89l50.4,37.17c-32.39,14.64-79.13,13-108.21-3.79c-12.24-7.06-20.28-16.19-22.96-26.06
			L864.89,628.89z"/>
		<path class="st89" d="M864.89,628.89l10.02-46.85c18.08,1.29,34.91,6.03,47.8,13.47c31.72,18.31,31.72,48.45,0,66.76
			c-2.34,1.35-4.82,2.62-7.42,3.79L864.89,628.89z"/>
		<path class="st92" d="M864.89,628.89l-80.78,7.32c-4.05-14.89,4.5-30.04,22.96-40.7c17.8-10.28,42.85-15.25,67.83-13.47
			L864.89,628.89z"/>
		<linearGradient id="SVGID_19_" gradientUnits="userSpaceOnUse" x1="951.9879" y1="731.652" x2="768.8711" y2="688.1618">
			<stop  offset="0" style="stop-color:#A867DA"/>
			<stop  offset="0.9996" style="stop-color:#5238E0"/>
		</linearGradient>
		<path style="fill:url(#SVGID_19_);" d="M807.07,662.27c-12.24-7.06-20.28-16.19-22.96-26.06v87.94c2.68,9.87,10.72,19,22.96,26.06
			c29.09,16.79,75.82,18.43,108.21,3.79v-87.94C882.89,680.7,836.16,679.06,807.07,662.27z"/>
		<linearGradient id="SVGID_21_" gradientUnits="userSpaceOnUse" x1="854.3795" y1="510.4571" x2="740.84" y2="699.3752">
			<stop  offset="0" style="stop-color:#FFFFFF"/>
			<stop  offset="0.0998" style="stop-color:#EFEFEE;stop-opacity:0.9002"/>
			<stop  offset="0.2974" style="stop-color:#C4C5C2;stop-opacity:0.7026"/>
			<stop  offset="0.574" style="stop-color:#7F817B;stop-opacity:0.426"/>
			<stop  offset="0.9159" style="stop-color:#21241A;stop-opacity:0.084"/>
			<stop  offset="1" style="stop-color:#080C01;stop-opacity:0"/>
		</linearGradient>
		<path style="fill:url(#SVGID_21_);" d="M783.15,628.21v1.4l0.02,0.1C783.15,629.21,783.14,628.71,783.15,628.21z"/>
		<linearGradient id="SVGID_23_" gradientUnits="userSpaceOnUse" x1="1004.8395" y1="572.4258" x2="840.237" y2="846.3077">
			<stop  offset="0" style="stop-color:#FFFFFF"/>
			<stop  offset="0.0998" style="stop-color:#EFEFEE;stop-opacity:0.9002"/>
			<stop  offset="0.2974" style="stop-color:#C4C5C2;stop-opacity:0.7026"/>
			<stop  offset="0.574" style="stop-color:#7F817B;stop-opacity:0.426"/>
			<stop  offset="0.9159" style="stop-color:#21241A;stop-opacity:0.084"/>
			<stop  offset="1" style="stop-color:#080C01;stop-opacity:0"/>
		</linearGradient>
		<path style="fill:url(#SVGID_23_);" d="M922.7,662.27c-2.34,1.35-4.82,2.62-7.42,3.79V754c2.6-1.18,5.08-2.44,7.42-3.79
			c15.95-9.21,23.87-21.41,23.78-33.59v-87.08c0-0.14,0-0.29,0-0.43C946.39,641.14,938.47,653.16,922.7,662.27z"/>
		<linearGradient id="SVGID_24_" gradientUnits="userSpaceOnUse" x1="1010.6726" y1="619.4481" x2="677.6626" y2="932.0702">
			<stop  offset="0" style="stop-color:#A4F8FF"/>
			<stop  offset="1" style="stop-color:#5B61D2"/>
		</linearGradient>
		<path class="st56" d="M922.7,662.27c-2.34,1.35-4.82,2.62-7.42,3.79V754c2.6-1.18,5.08-2.44,7.42-3.79
			c15.95-9.21,23.87-21.41,23.78-33.59v-87.08c0-0.14,0-0.29,0-0.43C946.39,641.14,938.47,653.16,922.7,662.27z"/>
		<linearGradient id="SVGID_25_" gradientUnits="userSpaceOnUse" x1="940.4058" y1="416.0211" x2="724.4202" y2="775.3991">
			<stop  offset="0" style="stop-color:#FFFFFF"/>
			<stop  offset="0.0998" style="stop-color:#EFEFEE;stop-opacity:0.9002"/>
			<stop  offset="0.2974" style="stop-color:#C4C5C2;stop-opacity:0.7026"/>
			<stop  offset="0.574" style="stop-color:#7F817B;stop-opacity:0.426"/>
			<stop  offset="0.9159" style="stop-color:#21241A;stop-opacity:0.084"/>
			<stop  offset="1" style="stop-color:#080C01;stop-opacity:0"/>
		</linearGradient>
		<path class="st57" d="M783.17,629.71l-0.02-0.1v86.11c-0.11,2.8,0.2,5.61,0.96,8.42V636.2
			C783.52,634.04,783.23,631.87,783.17,629.71z"/>
		<linearGradient id="SVGID_26_" gradientUnits="userSpaceOnUse" x1="783.1275" y1="676.8777" x2="784.1123" y2="676.8777">
			<stop  offset="0" style="stop-color:#5A3BDD"/>
			<stop  offset="1" style="stop-color:#2E2680"/>
		</linearGradient>
		<path class="st59" d="M783.17,629.71l-0.02-0.1v86.11c-0.11,2.8,0.2,5.61,0.96,8.42V636.2
			C783.52,634.04,783.23,631.87,783.17,629.71z"/>
	</g>
	<g>
		<g>
			<g>
				<path class="st101" d="M1039.25,664.21c-8.89,0-18.25-2.15-25.53-6.36L979.5,638.1c-7.36-4.25-11.58-10.05-11.58-15.91
					c0-4.98,3.01-9.45,8.47-12.61l286.09-165.17c11.65-6.73,32-5.92,45.36,1.8l34.22,19.76c7.36,4.25,11.58,10.05,11.58,15.91
					c0,4.98-3.01,9.45-8.47,12.61l-286.09,165.17C1053.78,662.71,1046.68,664.21,1039.25,664.21z M1282.25,443.89
					c-6.72,0-13.1,1.31-17.76,4L978.4,613.07c-4.17,2.4-6.46,5.64-6.46,9.12c0,4.38,3.49,8.91,9.57,12.42l34.22,19.76
					c12.04,6.96,30.98,7.78,41.34,1.8l286.09-165.17c4.16-2.4,6.46-5.64,6.46-9.12c0-4.38-3.49-8.91-9.57-12.42l-34.22-19.76
					C1299.19,445.86,1290.47,443.89,1282.25,443.89z"/>
				<g>
					<path class="st102" d="M1266.92,464.46l-227.56,131.38c-10.61,6.13-29.32,5.35-41.57-1.72l0,0c-12.25-7.07-13.6-17.87-2.98-24
						l227.56-131.38c10.61-6.13,29.32-5.35,41.57,1.72l0,0C1276.19,447.53,1277.53,458.33,1266.92,464.46z"/>
					<linearGradient id="SVGID_27_" gradientUnits="userSpaceOnUse" x1="1236.8707" y1="444.5197" x2="990.7464" y2="613.4695">
						<stop  offset="0" style="stop-color:#E8E8FE"/>
						<stop  offset="1" style="stop-color:#B5B8FC"/>
					</linearGradient>
					<path class="st60" d="M1266.92,464.46l-227.56,131.38c-10.61,6.13-29.32,5.35-41.57-1.72l0,0c-12.25-7.07-13.6-17.87-2.98-24
						l227.56-131.38c10.61-6.13,29.32-5.35,41.57,1.72l0,0C1276.19,447.53,1277.53,458.33,1266.92,464.46z"/>
					<g>
						<linearGradient id="SVGID_28_" gradientUnits="userSpaceOnUse" x1="1271.4379" y1="449.0674" x2="989.8557" y2="615.9312">
							<stop  offset="0" style="stop-color:#B5B8FC"/>
							<stop  offset="1" style="stop-color:#675BDA"/>
						</linearGradient>
						<path class="st61" d="M1266.92,464.46l-227.56,131.38c-10.61,6.13-29.32,5.35-41.57-1.72c-6.81-3.93-10.23-9.01-10.13-13.8
							c0,0.08,0,0.16,0,0.24c0,0.08,0,0.16,0,0.24v23.48c-0.23,4.86,3.21,10.04,10.13,14.04c12.25,7.07,30.96,7.85,41.57,1.72
							l227.56-131.38c4.72-2.72,7.06-6.37,7.14-10.2c0-0.08,0-0.16,0-0.24V454.5C1273.88,458.24,1271.54,461.79,1266.92,464.46z"/>
					</g>
				</g>
				<g>
					<linearGradient id="SVGID_30_" gradientUnits="userSpaceOnUse" x1="1278.937" y1="495.7805" x2="1126.6737" y2="620.9285">
						<stop  offset="0" style="stop-color:#E8E8FE"/>
						<stop  offset="1" style="stop-color:#B5B8FC"/>
					</linearGradient>
					<path style="fill:url(#SVGID_30_);" d="M1158.84,599.15c10.52,6.07,10.52,15.92,0,21.99c-10.52,6.07-27.58,6.07-38.1,0
						c-10.52-6.07-10.52-15.92,0-21.99C1131.26,593.08,1148.32,593.08,1158.84,599.15z"/>
					<linearGradient id="SVGID_31_" gradientUnits="userSpaceOnUse" x1="1286.9685" y1="505.5529" x2="1134.7053" y2="630.7007">
						<stop  offset="0" style="stop-color:#E8E8FE"/>
						<stop  offset="1" style="stop-color:#B5B8FC"/>
					</linearGradient>
					<path style="fill:url(#SVGID_31_);" d="M1225.79,560.5c10.52,6.07,10.52,15.92,0,22c-10.52,6.07-27.58,6.07-38.1,0
						c-10.52-6.07-10.52-15.92,0-22C1198.21,554.42,1215.27,554.42,1225.79,560.5z"/>
					<linearGradient id="SVGID_32_" gradientUnits="userSpaceOnUse" x1="1295.0007" y1="515.3253" x2="1142.7372" y2="640.4734">
						<stop  offset="0" style="stop-color:#E8E8FE"/>
						<stop  offset="1" style="stop-color:#B5B8FC"/>
					</linearGradient>
					<path style="fill:url(#SVGID_32_);" d="M1292.74,521.84c10.52,6.07,10.52,15.92,0,21.99c-10.52,6.07-27.58,6.07-38.1,0
						c-10.52-6.07-10.52-15.92,0-21.99C1265.16,515.77,1282.22,515.77,1292.74,521.84z"/>
				</g>
			</g>
			<g>
				<ellipse class="st108" cx="1063.79" cy="552.45" rx="11.64" ry="6.72"/>
				<path class="st2" d="M1063.78,556.4c-2.59,0-5.09-0.58-6.85-1.6c-1.27-0.73-2.03-1.61-2.03-2.36c0-0.74,0.76-1.63,2.03-2.36
					c1.76-1.02,4.25-1.6,6.85-1.6c2.59,0,5.09,0.58,6.85,1.6c1.27,0.73,2.03,1.61,2.03,2.36c0,0.74-0.76,1.63-2.03,2.36
					C1068.87,555.82,1066.38,556.4,1063.78,556.4z"/>
				<path class="st108" d="M1104.94,528.69c4.55,2.62,4.55,6.88,0,9.5c-4.55,2.62-11.92,2.62-16.46,0c-4.55-2.62-4.55-6.88,0-9.5
					C1093.03,526.06,1100.4,526.06,1104.94,528.69z"/>
				<path class="st2" d="M1096.71,537.39c-2.59,0-5.09-0.58-6.85-1.6c-1.27-0.73-2.03-1.61-2.03-2.36c0-0.74,0.76-1.63,2.03-2.36
					c1.76-1.02,4.25-1.6,6.85-1.6s5.09,0.58,6.85,1.6c1.27,0.73,2.03,1.61,2.03,2.36c0,0.74-0.76,1.62-2.03,2.36
					C1101.8,536.81,1099.3,537.39,1096.71,537.39z"/>
				<path class="st108" d="M1137.87,509.68c4.55,2.62,4.55,6.88,0,9.5c-4.55,2.62-11.92,2.62-16.46,0c-4.55-2.62-4.55-6.88,0-9.5
					C1125.95,507.05,1133.32,507.05,1137.87,509.68z"/>
				<path class="st2" d="M1129.64,518.39c-2.59,0-5.09-0.58-6.85-1.6c-1.27-0.73-2.03-1.61-2.03-2.36c0-0.74,0.76-1.63,2.03-2.36
					c1.76-1.02,4.25-1.6,6.85-1.6c2.59,0,5.09,0.58,6.85,1.6c1.27,0.73,2.03,1.61,2.03,2.36c0,0.74-0.76,1.63-2.03,2.36
					C1134.72,517.8,1132.23,518.39,1129.64,518.39z"/>
				<ellipse class="st108" cx="1162.56" cy="495.42" rx="11.64" ry="6.72"/>
				<path class="st2" d="M1162.56,499.38c-2.59,0-5.09-0.58-6.85-1.6c-1.27-0.73-2.03-1.61-2.03-2.36c0-0.75,0.76-1.63,2.03-2.36
					c1.76-1.02,4.25-1.6,6.85-1.6c2.59,0,5.09,0.58,6.85,1.6c1.27,0.73,2.03,1.61,2.03,2.36c0,0.74-0.76,1.63-2.03,2.36
					C1167.65,498.79,1165.15,499.38,1162.56,499.38z"/>
				<path class="st108" d="M1203.71,471.66c4.55,2.62,4.55,6.88,0,9.5s-11.92,2.62-16.46,0c-4.55-2.62-4.55-6.88,0-9.5
					C1191.8,469.04,1199.17,469.04,1203.71,471.66z"/>
				<path class="st2" d="M1195.48,480.37c-2.59,0-5.09-0.58-6.85-1.6c-1.27-0.73-2.02-1.61-2.02-2.36c0-0.75,0.76-1.63,2.02-2.36
					c1.76-1.02,4.25-1.6,6.85-1.6c2.59,0,5.09,0.58,6.85,1.6c1.27,0.73,2.03,1.61,2.03,2.36c0,0.74-0.76,1.63-2.03,2.36
					C1200.57,479.79,1198.08,480.37,1195.48,480.37z"/>
			</g>
		</g>
		<g>
			<linearGradient id="SVGID_34_" gradientUnits="userSpaceOnUse" x1="1273.6912" y1="699.89" x2="1273.6912" y2="359.2953">
				<stop  offset="0" style="stop-color:#83E8FE"/>
				<stop  offset="0.9996" style="stop-color:#FFFFFF;stop-opacity:0"/>
			</linearGradient>
			<path style="fill:url(#SVGID_34_);" d="M1246.84,531.78c-0.51,4.33,2.07,8.75,7.8,12.06c10.52,6.07,27.58,6.07,38.1,0
				c5.73-3.31,8.31-7.73,7.8-12.06l0-318.85c0.51-4.33-2.07-8.75-7.8-12.06c-10.52-6.07-27.58-6.07-38.1,0
				c-5.73,3.31-8.31,7.73-7.8,12.06V531.78z"/>
			<linearGradient id="SVGID_35_" gradientUnits="userSpaceOnUse" x1="1139.7913" y1="699.8896" x2="1139.7913" y2="359.295">
				<stop  offset="0" style="stop-color:#83E8FE"/>
				<stop  offset="0.9996" style="stop-color:#FFFFFF;stop-opacity:0"/>
			</linearGradient>
			<path class="st67" d="M1112.94,609.08c-0.51,4.33,2.07,8.75,7.8,12.06c10.52,6.07,27.58,6.07,38.1,0
				c5.73-3.31,8.31-7.73,7.8-12.06V290.23c0.51-4.33-2.07-8.75-7.8-12.06c-10.52-6.07-27.58-6.07-38.1,0
				c-5.73,3.31-8.31,7.73-7.8,12.06V609.08z"/>
			<linearGradient id="SVGID_36_" gradientUnits="userSpaceOnUse" x1="1206.741" y1="699.89" x2="1206.741" y2="359.295">
				<stop  offset="0" style="stop-color:#83E8FE"/>
				<stop  offset="0.9996" style="stop-color:#FFFFFF;stop-opacity:0"/>
			</linearGradient>
			<path class="st68" d="M1179.89,570.43c-0.51,4.33,2.07,8.75,7.8,12.06c10.52,6.07,27.58,6.07,38.1,0
				c5.73-3.31,8.31-7.73,7.8-12.06V251.58c0.51-4.33-2.07-8.75-7.8-12.06c-10.52-6.07-27.58-6.07-38.1,0
				c-5.73,3.31-8.31,7.73-7.8,12.06V570.43z"/>
		</g>
	</g>
</g>
</svg>
