<svg width="132" height="24" viewBox="0 0 132 24" xmlns="http://www.w3.org/2000/svg">
    <title>VK Реклама – реклама на проектах VK по-новому</title>
    <g>
        <path fill-rule="evenodd" clip-rule="evenodd"
              d="M30.71 5.92091H32.9403L36.3884 15.9807H36.7364L40.3005 5.92091H42.4991L38.0492 18.1265H35.0229L30.71 5.92091ZM51.1986 18.1265L46.6274 12.8963H46.1002V18.1265H44.0492V5.92091H46.1055V10.8875H46.6327L50.9561 5.92091H53.5185L48.3251 11.8049L53.935 18.1318L51.1986 18.1265ZM60.8682 18.1265V14.1617H63.1406C65.6713 14.1617 67.5536 12.4587 67.5536 10.0387C67.5536 7.61863 65.6713 5.92091 63.1406 5.92091H58.8119V18.1265H60.8682ZM65.2512 9.14168C65.3638 9.41954 65.4172 9.71789 65.4077 10.0176C65.4179 10.3177 65.3652 10.6166 65.2528 10.8951C65.1405 11.1736 64.9711 11.4255 64.7556 11.6346C64.5401 11.8437 64.2831 12.0053 64.0013 12.1091C63.7196 12.2129 63.4192 12.2566 63.1195 12.2373H60.8682V7.80316H63.1195C63.4187 7.78391 63.7186 7.82742 64.0001 7.9309C64.2815 8.03437 64.5381 8.19554 64.7536 8.40405C64.9691 8.61256 65.1385 8.86381 65.2512 9.14168ZM77.6661 14.1617H70.4113C70.4769 14.8251 70.7968 15.4373 71.3041 15.8698C71.8113 16.3023 72.4664 16.5216 73.1318 16.4815C73.5782 16.5029 74.0231 16.4146 74.4275 16.2244C74.8319 16.0341 75.1835 15.7477 75.4517 15.3902L77.3181 15.7012C76.6432 17.4148 74.877 18.3005 73.0105 18.3005C72.3898 18.325 71.7708 18.2208 71.1923 17.9944C70.6138 17.7681 70.0885 17.4245 69.6492 16.9852C69.21 16.546 68.8664 16.0206 68.64 15.4421C68.4137 14.8637 68.3094 14.2446 68.3339 13.6239C68.3596 12.4096 68.8566 11.2529 69.7199 10.3986C70.5831 9.54425 71.7449 9.05926 72.9594 9.04625C74.1739 9.03323 75.3458 9.49321 76.2272 10.3289C77.1085 11.1645 77.6302 12.3103 77.6819 13.5237C77.6974 13.7556 77.6826 13.9472 77.6672 14.1477L77.6661 14.1617ZM70.5483 12.6063H75.536C75.3926 12.0555 75.0704 11.5677 74.6201 11.2195C74.1698 10.8712 73.6167 10.6822 73.0475 10.6819C72.4741 10.6705 71.914 10.8549 71.4596 11.2048C71.0053 11.5547 70.6838 12.0491 70.5483 12.6063ZM81.2302 14.5413H81.7153L84.8102 18.1265H87.4464L83.3076 13.4499L87.0984 9.12127H84.7258L81.7153 12.6221H81.2302V9.12127H79.2373V18.1265H81.2302V14.5413ZM96.9631 9.12126V18.1265H94.9701V10.9402H92.2179L92.0281 14.7311C91.9069 16.9508 90.8155 18.2109 89.0176 18.2109C88.7516 18.2086 88.4859 18.1927 88.2215 18.1634L88.0264 16.2548H88.7751C89.6556 16.2548 89.9824 15.8383 90.0563 14.7469L90.3832 9.10017L96.9631 9.12126ZM106.527 18.1265V13.0703C106.527 10.4552 105.104 8.96309 102.805 8.92091C101.054 8.92091 99.5149 9.79613 99.0615 11.3779L100.896 11.6889C101.069 11.3631 101.33 11.092 101.648 10.9057C101.967 10.7195 102.331 10.6256 102.699 10.6344C103.791 10.6344 104.429 11.4148 104.518 12.5958H102.578C99.9315 12.5958 98.6134 13.7399 98.6134 15.4165C98.6134 17.0931 99.9104 18.29 101.745 18.29C102.323 18.3002 102.894 18.1597 103.402 17.8824C103.909 17.6051 104.336 17.2004 104.64 16.7083L105.056 18.1265H106.527ZM102.647 14.1617H104.534C104.534 15.6327 103.627 16.6186 102.204 16.6186C101.244 16.6186 100.622 16.1178 100.622 15.3374C100.622 14.6467 101.123 14.1617 102.647 14.1617ZM108.636 9.12127H111.736L113.814 15.29H114.093L116.281 9.12127H119.313V18.1265H117.409V11.4464H117.13L114.752 18.1265H113.07L110.819 11.4464H110.545V18.1265H108.636V9.12127ZM128.851 18.1265V13.0703C128.851 10.4552 127.427 8.96309 125.112 8.92091C123.362 8.92091 121.823 9.79613 121.369 11.3779L123.204 11.6889C123.377 11.3631 123.637 11.092 123.956 10.9057C124.274 10.7195 124.638 10.6256 125.007 10.6344C126.098 10.6344 126.736 11.4148 126.826 12.5958H124.881C122.234 12.5958 120.916 13.7399 120.916 15.4165C120.916 17.0931 122.213 18.29 124.047 18.29C124.626 18.3002 125.197 18.1597 125.704 17.8824C126.212 17.6051 126.638 17.2004 126.942 16.7083L127.353 18.1265H128.851ZM124.97 14.1617H126.858C126.858 15.6327 125.924 16.6186 124.527 16.6186C123.568 16.6186 122.946 16.1178 122.946 15.3374C122.946 14.6467 123.446 14.1617 124.97 14.1617Z"
              fill="var(--header-logo-font-color)"></path>
        <path d="M0 11.4095C0 6.03163 0 3.33743 1.67291 1.67135C3.34054 0 6.03725 0 11.4201 0L12.6022 0C17.9851 0 20.6765 0 22.3494 1.67135C24.0223 3.34271 24.0223 6.03163 24.0223 11.4095V12.5905C24.0223 17.9684 24.0223 20.6573 22.3494 22.3286C20.6765 24 17.9851 24 12.6022 24H11.4201C6.03725 24 3.34582 24 1.67291 22.3286C0 20.6573 0 17.9684 0 12.5905L0 11.4095Z"
              fill="#0077FF"></path>
        <path d="M11.965 19.7833C16.2931 19.7833 19.8018 16.2779 19.8018 11.9538C19.8018 7.62966 16.2931 4.12427 11.965 4.12427C7.63684 4.12427 4.12817 7.62966 4.12817 11.9538C4.12817 16.2779 7.63684 19.7833 11.965 19.7833Z"
              fill="#00D9ED"></path>
        <path fill-rule="evenodd" clip-rule="evenodd"
              d="M19.2613 3.17061L19.2613 4.67324L20.7442 4.67324C21.5886 4.67324 22.0213 5.68555 21.4355 6.29187L19.4038 8.41138C19.2243 8.60118 18.971 8.70663 18.7125 8.70663L16.7915 8.70663L14.802 10.8472C14.9444 11.1899 15.0289 11.5696 15.0289 11.965C15.0289 13.552 13.7412 14.8384 12.1527 14.8384C10.5643 14.8384 9.27661 13.552 9.27661 11.965C9.27661 10.378 10.5643 9.09152 12.1527 9.09152C12.4219 9.09152 12.6858 9.12843 12.9338 9.19697L15.2189 6.74003L15.2189 5.16358C15.2189 4.89996 15.3297 4.64688 15.5197 4.46762L17.6412 2.46938C18.2533 1.89469 19.256 2.32702 19.256 3.16534L19.2613 3.17061Z"
              fill="white"></path>
    </g>
</svg>